<svg aria-hidden="true" style="position: absolute; width: 0; height: 0; overflow: hidden;" version="1.1" xmlns="http://www.w3.org/2000/svg" xmlns:xlink="http://www.w3.org/1999/xlink">
<defs>
<symbol id="icon-sale" viewBox="0 0 24 24">
<path fill="#000" style="fill: var(--color1, #000)" d="M16.779 5.218l1.868-1.854h-0.033l-1.835 1.854z"></path>
<path fill="#000" style="fill: var(--color1, #000)" d="M19.565 2.405l-0.917 0.927h4.882l-1.409-1.39c0 0-0.688-0.53-1.212-0.496-0.524 0.066-1.343 0.96-1.343 0.96z"></path>
<path fill="#000" style="fill: var(--color1, #000)" d="M20.22 1.379c-1.835-0.099-10.059-1.324-10.059-1.324s-1.573-0.298-2.556 0.496l-6.848 6.918c0 0-0.95 0.761-0.721 2.846s1.311 9.93 1.311 9.93 0.098 1.456 0.492 2.085c-0.557-1.622 0.524-2.515 0.524-2.515l0.917-0.96 15.335-15.523h0.033l0.95-0.927c0 0 0.557-0.662 1.343-0.96-0.229-0.033-0.459-0.033-0.721-0.066z"></path>
<path fill="#000" style="fill: var(--color1, #000)" d="M1.838 22.33c0.033 0.066 0.066 0.099 0.098 0.132 0.492 0.496 1.343 1.39 1.343 1.39v-4.998l-0.917 0.96c0 0-1.081 0.927-0.524 2.515z"></path>
<path fill="#fff" style="fill: var(--color2, #fff)" opacity="0.3" d="M7.998 0.518l11.37 1.357-9.994-1.523c0 0-0.655-0.132-1.376 0.165z"></path>
<path fill="#fff" style="fill: var(--color2, #fff)" d="M9.604 9.852c0.164 0.165 0.262 0.364 0.328 0.53 0.066 0.199 0.066 0.364 0.033 0.53s-0.131 0.331-0.262 0.463-0.295 0.232-0.459 0.265c-0.164 0.033-0.328 0.033-0.524-0.066-0.164-0.066-0.36-0.199-0.491-0.364l-0.131-0.132c-0.164-0.166-0.262-0.331-0.328-0.53s-0.066-0.364-0.033-0.53c0.033-0.165 0.131-0.331 0.262-0.463s0.295-0.232 0.459-0.265 0.36-0.033 0.524 0.066c0.164 0.066 0.36 0.199 0.524 0.364l0.098 0.132zM9.276 9.951c-0.197-0.199-0.393-0.331-0.59-0.364s-0.36 0.033-0.492 0.166-0.197 0.298-0.197 0.496c0.033 0.199 0.131 0.397 0.328 0.596l0.131 0.132c0.197 0.199 0.393 0.331 0.59 0.364s0.36-0.033 0.524-0.165 0.197-0.298 0.197-0.497c-0.033-0.199-0.131-0.397-0.328-0.596l-0.164-0.132z"></path>
<path fill="#fff" style="fill: var(--color2, #fff)" d="M10.947 8.627l-0.721 0.695 0.721 0.761-0.229 0.232-1.671-1.754 1.081-1.059 0.164 0.199-0.852 0.827 0.557 0.596 0.721-0.695 0.229 0.199z"></path>
<path fill="#fff" style="fill: var(--color2, #fff)" d="M12.29 7.336l-0.721 0.695 0.721 0.761-0.229 0.232-1.671-1.754 1.081-1.059 0.164 0.199-0.819 0.827 0.557 0.596 0.721-0.695 0.197 0.199z"></path>
<path fill="#fff" style="fill: var(--color2, #fff)" d="M8.162 2.901l0.524 0.563c0.131 0.132 0.229 0.265 0.262 0.364s0.033 0.232 0 0.364c-0.033 0.132-0.131 0.298-0.262 0.43-0.164 0.165-0.328 0.265-0.459 0.298s-0.262 0.033-0.36 0-0.229-0.132-0.328-0.265l-0.557-0.596c-0.164-0.165-0.262-0.298-0.295-0.397s-0.033-0.232 0-0.364c0.033-0.132 0.131-0.265 0.262-0.397 0.164-0.132 0.295-0.232 0.459-0.265 0.131-0.033 0.262-0.033 0.36 0 0.098 0 0.229 0.099 0.393 0.265zM7.507 3.232c-0.098-0.099-0.131-0.132-0.164-0.132s-0.066 0-0.098 0.033c-0.033 0.033-0.066 0.066-0.033 0.099 0 0.033 0.066 0.099 0.131 0.165l0.786 0.827c0.098 0.099 0.164 0.132 0.164 0.165 0.033 0 0.066 0 0.098-0.033s0.033-0.066 0.033-0.099c0-0.033-0.066-0.099-0.131-0.165l-0.786-0.861zM8.49 1.346l1.966 4.601-0.295 0.298-1.966-4.601 0.295-0.298zM11.144 3l0.524 0.563c0.131 0.132 0.229 0.265 0.262 0.364s0.033 0.232 0 0.364c-0.033 0.132-0.131 0.298-0.262 0.43-0.164 0.165-0.328 0.265-0.459 0.298s-0.262 0.033-0.36 0c-0.098-0.033-0.229-0.132-0.328-0.265l-0.557-0.596c-0.164-0.165-0.262-0.298-0.295-0.397s-0.033-0.232 0-0.364c0.033-0.132 0.131-0.265 0.262-0.397 0.164-0.132 0.295-0.232 0.459-0.265 0.131-0.033 0.262-0.033 0.36 0s0.229 0.132 0.393 0.265zM10.488 3.365c-0.098-0.099-0.131-0.132-0.164-0.132s-0.066 0-0.098 0.033c-0.033 0.033-0.066 0.066-0.033 0.099 0 0.033 0.066 0.099 0.131 0.165l0.786 0.827c0.098 0.099 0.131 0.132 0.164 0.166 0.033 0 0.066 0 0.098-0.033s0.066-0.066 0.033-0.099c0-0.033-0.066-0.099-0.131-0.165l-0.786-0.861z"></path>
<path fill="#fffdfd" style="fill: var(--color3, #fffdfd)" d="M5.672 10.679c-0.295 0.033-0.557-0.099-0.819-0.364l-0.492-0.496 0.688-0.695 0.295 0.298c0.098 0.099 0.229 0.199 0.295 0.232 0.098 0.033 0.164 0.033 0.229-0.033s0.098-0.132 0.066-0.199c-0.033-0.066-0.066-0.132-0.164-0.232l-0.655-0.662c-0.098-0.099-0.197-0.199-0.295-0.232s-0.164-0.033-0.229 0.033c-0.131 0.132-0.098 0.298 0.098 0.463l-0.623 0.629-1.769-1.787 1.638-1.655 0.623 0.629-0.95 0.993 0.459 0.463c0-0.066 0-0.165 0.033-0.232 0.033-0.099 0.066-0.165 0.164-0.232 0.295-0.298 0.557-0.364 0.885-0.265 0.295 0.099 0.623 0.331 0.983 0.695 0.295 0.298 0.524 0.563 0.655 0.794s0.197 0.463 0.164 0.695c-0.033 0.232-0.164 0.496-0.426 0.728-0.262 0.265-0.557 0.397-0.852 0.43z"></path>
<path fill="#fffdfd" style="fill: var(--color3, #fffdfd)" d="M7.539 8.693c-0.328 0-0.623-0.165-0.917-0.463l-1.507-1.523c-0.328-0.331-0.491-0.629-0.491-0.96-0.033-0.331 0.131-0.629 0.426-0.927s0.59-0.43 0.917-0.43c0.328 0 0.623 0.199 0.95 0.497l1.507 1.523c0.295 0.298 0.459 0.596 0.459 0.927s-0.131 0.629-0.426 0.894c-0.295 0.331-0.59 0.463-0.917 0.463zM7.867 7.469c0-0.066-0.066-0.132-0.098-0.199l-1.638-1.688c-0.098-0.099-0.164-0.165-0.262-0.199-0.066-0.033-0.131 0-0.197 0.066s-0.098 0.132-0.066 0.199c0.033 0.066 0.098 0.166 0.197 0.265l1.638 1.688c0.066 0.066 0.131 0.099 0.197 0.132 0.066 0 0.131 0 0.197-0.066 0.033-0.066 0.066-0.132 0.033-0.199z"></path>
</symbol>
<symbol id="icon-download" viewBox="0 0 24 24">
<path d="M20 15v4c0 0.276-0.111 0.525-0.293 0.707s-0.431 0.293-0.707 0.293h-14c-0.276 0-0.525-0.111-0.707-0.293s-0.293-0.431-0.293-0.707v-4c0-0.552-0.448-1-1-1s-1 0.448-1 1v4c0 0.828 0.337 1.58 0.879 2.121s1.293 0.879 2.121 0.879h14c0.828 0 1.58-0.337 2.121-0.879s0.879-1.293 0.879-2.121v-4c0-0.552-0.448-1-1-1s-1 0.448-1 1zM13 12.586v-9.586c0-0.552-0.448-1-1-1s-1 0.448-1 1v9.586l-3.293-3.293c-0.391-0.391-1.024-0.391-1.414 0s-0.391 1.024 0 1.414l5 5c0.092 0.092 0.202 0.166 0.324 0.217s0.253 0.076 0.383 0.076c0.256 0 0.512-0.098 0.707-0.293l5-5c0.391-0.391 0.391-1.024 0-1.414s-1.024-0.391-1.414 0z"></path>
</symbol>
<symbol id="icon-arrow" viewBox="0 0 30 32">
<path fill="#3683f7" style="fill: var(--color1, #3683f7)" d="M15.097 0l-13.075 8.615h26.149l-13.075-8.615z"></path>
<path fill="#3683f7" style="fill: var(--color1, #3683f7)" d="M28.226 30.687h-26.256v-22.154h26.256v22.154z"></path>
</symbol>
</defs>
</svg>
